<?xml version="1.0" encoding="UTF-8"?>
<svg version="1.1" xmlns="http://www.w3.org/2000/svg" width="512" height="512">
<path d="M0 0 C0.99422974 0.00215515 1.98845947 0.0043103 3.01281738 0.00653076 C17.48109955 0.05686686 31.66189071 0.35398296 45.875 3.3125 C46.85130371 3.51117676 47.82760742 3.70985352 48.83349609 3.91455078 C97.21339984 14.03634541 141.2005519 35.95291013 176.875 70.3125 C177.8640332 71.26068604 177.8640332 71.26068604 178.87304688 72.22802734 C188.36130305 81.37247479 197.1012044 90.66984009 204.875 101.3125 C205.73306152 102.46355017 206.59113451 103.61459177 207.44921875 104.765625 C213.48736829 112.95680614 218.84595521 121.47054105 223.875 130.3125 C224.23948242 130.94430176 224.60396484 131.57610352 224.97949219 132.22705078 C246.4740329 169.78084014 256.35126533 212.44304389 256.1875 255.4375 C256.18476578 256.9278476 256.18476578 256.9278476 256.18197632 258.44830322 C256.13719978 272.942192 255.67610213 287.05386097 252.875 301.3125 C252.71402832 302.20807617 252.55305664 303.10365234 252.38720703 304.02636719 C244.49797508 347.63313051 224.80850867 388.77106217 195.875 422.3125 C195.24078125 423.05757813 194.6065625 423.80265625 193.953125 424.5703125 C182.14198485 438.07529833 169.39139772 450.74668743 154.875 461.3125 C153.72505169 462.16899066 152.57531411 463.02576433 151.42578125 463.8828125 C143.23410474 469.9234414 134.71854922 475.28255071 125.875 480.3125 C125.24319824 480.67698242 124.61139648 481.04146484 123.96044922 481.41699219 C97.93166464 496.31500327 68.51361377 505.96041257 38.875 510.3125 C37.67254639 510.48910156 36.47009277 510.66570312 35.23120117 510.84765625 C23.51493596 512.45161689 11.87584274 512.71324553 0.0625 512.6875 C-0.92433777 512.68662384 -1.91117554 512.68574768 -2.92791748 512.68484497 C-67.88219852 512.49532667 -130.29571624 487.41579016 -177.125 442.3125 C-177.78435547 441.68037598 -178.44371094 441.04825195 -179.12304688 440.39697266 C-188.61130305 431.25252521 -197.3512044 421.95515991 -205.125 411.3125 C-205.98306152 410.16144983 -206.84113451 409.01040823 -207.69921875 407.859375 C-213.73736829 399.66819386 -219.09595521 391.15445895 -224.125 382.3125 C-224.48948242 381.68069824 -224.85396484 381.04889648 -225.22949219 380.39794922 C-240.15973018 354.31285999 -249.63885054 324.97664886 -254.125 295.3125 C-254.38990234 293.62882324 -254.38990234 293.62882324 -254.66015625 291.91113281 C-256.3170586 280.29802257 -256.52373513 268.78070055 -256.5 257.0625 C-256.49945618 256.05048523 -256.49891235 255.03847046 -256.49835205 253.99578857 C-256.4576051 237.46132605 -255.53386907 221.54185136 -252.125 205.3125 C-251.91601074 204.29720215 -251.70702148 203.2819043 -251.49169922 202.23583984 C-242.71380189 160.92383315 -223.71113066 122.2919774 -196.125 90.3125 C-195.49078125 89.56742187 -194.8565625 88.82234375 -194.203125 88.0546875 C-182.39198485 74.54970167 -169.64139772 61.87831257 -155.125 51.3125 C-153.97505169 50.45600934 -152.82531411 49.59923567 -151.67578125 48.7421875 C-143.48410474 42.7015586 -134.96854922 37.34244929 -126.125 32.3125 C-125.49319824 31.94801758 -124.86139648 31.58353516 -124.21044922 31.20800781 C-98.17975097 16.30890142 -68.76448404 6.66904478 -39.125 2.3125 C-37.32675781 2.04651001 -37.32675781 2.04651001 -35.4921875 1.77514648 C-23.66616559 0.14661384 -11.92341476 -0.04652724 0 0 Z M-95.125 141.3125 C-99.93066385 148.40714588 -101.27419634 153.95400574 -101.27217102 162.47085571 C-101.27584771 163.30026244 -101.2795244 164.12966916 -101.2833125 164.98420942 C-101.29433877 167.76763676 -101.2981914 170.55102675 -101.30200195 173.33447266 C-101.30826744 175.32866535 -101.31491432 177.32285687 -101.32191467 179.31704712 C-101.34294872 185.87021065 -101.35331701 192.4233744 -101.36328125 198.9765625 C-101.36732916 201.23362617 -101.3714461 203.49068972 -101.37563133 205.74775314 C-101.39468219 216.35279415 -101.408913 226.95782819 -101.4172433 237.56288302 C-101.42701328 249.79831428 -101.45332711 262.03356451 -101.49374419 274.26893198 C-101.52392209 283.72981405 -101.53871381 293.19064428 -101.54202431 302.65157354 C-101.54437303 308.3002948 -101.55331046 313.94882265 -101.57848549 319.59749222 C-101.6018001 324.91465636 -101.60598569 330.23150019 -101.59572411 335.54870224 C-101.59522945 337.49571041 -101.60152908 339.44273454 -101.61528015 341.38969421 C-101.70051883 354.17823598 -101.41175085 364.71699802 -92.19140625 374.5546875 C-85.65710331 380.11316827 -78.02202774 382.6917465 -69.546875 382.51171875 C-61.49184017 381.84912718 -56.47785721 378.41133059 -50.484375 373.15234375 C-41.98090718 362.91720946 -42.40688871 352.94477515 -42.47802734 340.2421875 C-42.47124465 338.20769469 -42.46233787 336.17320803 -42.45147705 334.13873291 C-42.42875486 328.63454272 -42.43749094 323.13082308 -42.45337248 317.62662506 C-42.46606812 311.85507478 -42.45428119 306.08356366 -42.44644165 300.31201172 C-42.43735578 290.62134601 -42.44930522 280.93087109 -42.47314453 271.24023438 C-42.50035361 260.05087175 -42.49153871 248.86196473 -42.4640125 237.67261314 C-42.44129227 228.05021463 -42.43813565 218.42795295 -42.45120585 208.80553627 C-42.45898428 203.06524823 -42.46008611 197.32517404 -42.44352341 191.5848999 C-42.4290356 186.18709837 -42.43917946 180.78988186 -42.46799469 175.39214325 C-42.47458244 173.41612467 -42.4727476 171.4400565 -42.46168137 169.46405792 C-42.3988145 157.09410236 -42.8456349 148.05076304 -51.4375 138.4375 C-57.73901518 132.60378289 -65.03338762 129.89878105 -73.5625 130.0390625 C-82.17706485 130.9582996 -89.48901446 134.76913357 -95.125 141.3125 Z M48.875 141.3125 C44.17241118 147.67620228 42.72606385 152.58652825 42.72109985 160.50245667 C42.7167176 161.34734317 42.71233535 162.19222968 42.7078203 163.06271881 C42.69442557 165.90452636 42.68825186 168.74630289 42.68212891 171.58813477 C42.67422834 173.62158855 42.66595942 175.65504092 42.65734863 177.68849182 C42.63111878 184.37694966 42.61581799 191.06541378 42.6015625 197.75390625 C42.59620283 200.05647218 42.59082532 202.35903808 42.58543015 204.66160393 C42.5637982 214.2411536 42.54506237 223.82070159 42.53380775 233.40026951 C42.5175753 247.12662529 42.48441791 260.8526977 42.42740691 274.57894665 C42.38868646 284.23088826 42.36917243 293.88275415 42.36388719 303.53477138 C42.36023608 309.29869079 42.34824017 315.062308 42.31578445 320.82614326 C42.28566787 326.25250276 42.27940504 331.6783778 42.29116821 337.10480309 C42.29138866 339.09213188 42.28310777 341.07948338 42.26551437 343.06673431 C42.16158485 355.48617027 42.56177624 364.532521 51.1875 374.1875 C57.48901518 380.02121711 64.78338762 382.72621895 73.3125 382.5859375 C81.92706485 381.6667004 89.23901446 377.85586643 94.875 371.3125 C99.68066385 364.21785412 101.02419634 358.67099426 101.02217102 350.15414429 C101.02584771 349.32473756 101.0295244 348.49533084 101.0333125 347.64079058 C101.04433877 344.85736324 101.0481914 342.07397325 101.05200195 339.29052734 C101.05826744 337.29633465 101.06491432 335.30214313 101.07191467 333.30795288 C101.09294872 326.75478935 101.10331701 320.2016256 101.11328125 313.6484375 C101.11732916 311.39137383 101.1214461 309.13431028 101.12563133 306.87724686 C101.14468219 296.27220585 101.158913 285.66717181 101.1672433 275.06211698 C101.17701328 262.82668572 101.20332711 250.59143549 101.24374419 238.35606802 C101.27392209 228.89518595 101.28871381 219.43435572 101.29202431 209.97342646 C101.29437303 204.3247052 101.30331046 198.67617735 101.32848549 193.02750778 C101.3518001 187.71034364 101.35598569 182.39349981 101.34572411 177.07629776 C101.34522945 175.12928959 101.35152908 173.18226546 101.36528015 171.23530579 C101.45051883 158.44676402 101.16175085 147.90800198 91.94140625 138.0703125 C85.47466071 132.56930022 77.77952502 129.90099302 69.37109375 130.0390625 C61.08461496 130.94681448 54.39076943 135.23289636 48.875 141.3125 Z " fill="#000000" transform="translate(256.125,-0.3125)"/>
</svg>
