<?xml version="1.0" encoding="UTF-8"?>
<svg version="1.1" xmlns="http://www.w3.org/2000/svg" width="512" height="512">
<path d="M0 0 C1.45108658 0.00273422 1.45108658 0.00273422 2.93148804 0.00552368 C17.26440977 0.05095174 31.21023917 0.55983928 45.3125 3.3125 C46.65803955 3.55395752 46.65803955 3.55395752 48.03076172 3.80029297 C107.84088904 14.62287989 165.35495829 48.68064457 202.3125 97.3125 C202.72918945 97.85277832 203.14587891 98.39305664 203.57519531 98.94970703 C211.2584873 108.9447116 218.00092968 119.40459036 224.3125 130.3125 C224.70679199 130.98974121 225.10108398 131.66698242 225.50732422 132.36474609 C238.68961173 155.2833756 247.29510918 180.85822563 252.625 206.6875 C252.77243652 207.39817627 252.91987305 208.10885254 253.07177734 208.84106445 C256.05713787 224.48358366 256.6873098 240.11919606 256.625 256 C256.62226578 257.45108658 256.62226578 257.45108658 256.61947632 258.93148804 C256.57404826 273.26440977 256.06516072 287.21023917 253.3125 301.3125 C253.15152832 302.20952637 252.99055664 303.10655273 252.82470703 304.03076172 C242.00212011 363.84088904 207.94435543 421.35495829 159.3125 458.3125 C158.77222168 458.72918945 158.23194336 459.14587891 157.67529297 459.57519531 C147.6802884 467.2584873 137.22040964 474.00092968 126.3125 480.3125 C125.63525879 480.70679199 124.95801758 481.10108398 124.26025391 481.50732422 C101.3416244 494.68961173 75.76677437 503.29510918 49.9375 508.625 C49.22682373 508.77243652 48.51614746 508.91987305 47.78393555 509.07177734 C32.14141634 512.05713787 16.50580394 512.6873098 0.625 512.625 C-0.34239105 512.62317719 -1.3097821 512.62135437 -2.30648804 512.61947632 C-16.63940977 512.57404826 -30.58523917 512.06516072 -44.6875 509.3125 C-45.58452637 509.15152832 -46.48155273 508.99055664 -47.40576172 508.82470703 C-107.21588904 498.00212011 -164.72995829 463.94435543 -201.6875 415.3125 C-202.10418945 414.77222168 -202.52087891 414.23194336 -202.95019531 413.67529297 C-210.6334873 403.6802884 -217.37592968 393.22040964 -223.6875 382.3125 C-224.08179199 381.63525879 -224.47608398 380.95801758 -224.88232422 380.26025391 C-238.06461173 357.3416244 -246.67010918 331.76677437 -252 305.9375 C-252.14743652 305.22682373 -252.29487305 304.51614746 -252.44677734 303.78393555 C-255.43213787 288.14141634 -256.0623098 272.50580394 -256 256.625 C-255.99817719 255.65760895 -255.99635437 254.6902179 -255.99447632 253.69351196 C-255.94904826 239.36059023 -255.44016072 225.41476083 -252.6875 211.3125 C-252.44604248 209.96696045 -252.44604248 209.96696045 -252.19970703 208.59423828 C-241.37712011 148.78411096 -207.31935543 91.27004171 -158.6875 54.3125 C-158.14722168 53.89581055 -157.60694336 53.47912109 -157.05029297 53.04980469 C-147.0552884 45.3665127 -136.59540964 38.62407032 -125.6875 32.3125 C-125.01025879 31.91820801 -124.33301758 31.52391602 -123.63525391 31.11767578 C-100.7166244 17.93538827 -75.14177437 9.32989082 -49.3125 4 C-48.60182373 3.85256348 -47.89114746 3.70512695 -47.15893555 3.55322266 C-31.51641634 0.56786213 -15.88080394 -0.0623098 0 0 Z M-61 168.25 C-63.67733618 173.10886937 -63.81391239 177.43951749 -63.82794189 182.9274292 C-63.83091302 183.57871961 -63.83388414 184.23001002 -63.8369453 184.9010365 C-63.84559211 187.07563907 -63.84713712 189.25018632 -63.84863281 191.42480469 C-63.85326384 192.98727536 -63.85828888 194.5497449 -63.86367798 196.11221313 C-63.87677671 200.35205513 -63.88324202 204.59188132 -63.88768864 208.83174038 C-63.8906235 211.48301594 -63.89472909 214.13428721 -63.89919281 216.78556061 C-63.9128612 225.08773234 -63.92253103 233.38989424 -63.9263947 241.69207644 C-63.93087372 251.26282428 -63.94841711 260.83342918 -63.9773953 270.40413356 C-63.99903937 277.81068612 -64.00910044 285.21719855 -64.01043582 292.6237824 C-64.01148191 297.04338028 -64.01734791 301.46284367 -64.03525543 305.88240814 C-64.05178329 310.0422656 -64.05386886 314.20188814 -64.04511642 318.36176682 C-64.04434856 319.88347632 -64.04865551 321.4051987 -64.05857468 322.92687607 C-64.54063281 335.74606619 -64.54063281 335.74606619 -59.23552322 346.91941452 C-54.78138571 350.77219615 -51.46455503 351.93089732 -45.6875 351.82421875 C-39.30942826 350.73629245 -34.04302671 346.75672902 -28.6875 343.3125 C-27.03963464 342.27122942 -25.39116073 341.2309215 -23.7421875 340.19140625 C-20.01787964 337.8354968 -16.30338295 335.46487991 -12.59375 333.0859375 C-6.6928135 329.30675207 -0.75790821 325.58372838 5.1875 321.875 C6.18442871 321.25294678 7.18135742 320.63089355 8.20849609 319.98999023 C10.23226739 318.72761688 12.2561934 317.46549153 14.28027344 316.20361328 C19.29340541 313.07706576 24.30277243 309.94449839 29.3125 306.8125 C31.31248171 305.56247074 33.31248172 304.31247074 35.3125 303.0625 C36.3025 302.44375 37.2925 301.825 38.3125 301.1875 C47.3125 295.5625 47.3125 295.5625 50.31713867 293.68530273 C52.30251956 292.44397444 54.2870681 291.20131381 56.27075195 289.95727539 C61.48812743 286.68777732 66.72104342 283.44758272 71.98046875 280.24609375 C73.07166016 279.57707031 74.16285156 278.90804687 75.28710938 278.21875 C77.37299316 276.94059143 79.46388722 275.67056046 81.56054688 274.41015625 C87.39441381 270.82131125 92.17398778 267.58952444 95.3125 261.3125 C95.8322324 256.57526697 95.83849673 252.53185606 93.9375 248.125 C87.38018462 241.09930495 78.31103902 236.33697919 70.1875 231.3125 C68.05985014 229.98965683 65.93224729 228.66673803 63.8046875 227.34375 C62.72670898 226.67472656 61.64873047 226.00570312 60.53808594 225.31640625 C55.45613996 222.15923 50.38463719 218.98540082 45.3125 215.8125 C43.31255493 214.56241212 41.3125548 213.31241232 39.3125 212.0625 C3.3125 189.5625 3.3125 189.5625 0.30761719 187.68432617 C-1.67596025 186.44467112 -3.65968228 185.20524739 -5.64355469 183.96606445 C-10.89607935 180.68474986 -16.14542926 177.39848809 -21.390625 174.10546875 C-22.48632812 173.41839844 -23.58203125 172.73132813 -24.7109375 172.0234375 C-26.81602849 170.70329569 -28.92023751 169.38174615 -31.0234375 168.05859375 C-31.96960938 167.465625 -32.91578125 166.87265625 -33.890625 166.26171875 C-34.72239258 165.73924561 -35.55416016 165.21677246 -36.41113281 164.6784668 C-45.51629117 159.21478587 -54.07610873 159.45478677 -61 168.25 Z " fill="#000000" transform="translate(255.6875,-0.3125)"/>
</svg>
